<?xml version="1.0" encoding="utf-8"?>
<!-- Generator: Adobe Illustrator 24.3.0, SVG Export Plug-In . SVG Version: 6.00 Build 0)  -->
<svg version="1.1" id="Layer_1" xmlns="http://www.w3.org/2000/svg" xmlns:xlink="http://www.w3.org/1999/xlink" x="0px" y="0px"
	 viewBox="0 0 800 800" style="enable-background:new 0 0 800 800;" xml:space="preserve">
<style type="text/css">
	.st0{fill-rule:evenodd;clip-rule:evenodd;fill:#323232;}
</style>
<path class="st0" d="M66.7,169.7c0-55.2,44.8-100,100-100h466.7c55.2,0,100,44.8,100,100v39.1c0,26.5-10.5,52-29.3,70.7L509.8,473.7
	c-6.2,6.3-9.8,14.7-9.8,23.6v78.1c0,26.5-10.5,52-29.3,70.7l-73.4,73.4C361.4,755.4,300,730,300,679.2V497.3
	c0-8.8-3.5-17.3-9.8-23.6L96,279.4c-18.8-18.8-29.3-44.2-29.3-70.7V169.7z"/>
</svg>
