<svg id="evgbh9lKoPN1" xmlns="http://www.w3.org/2000/svg" xmlns:xlink="http://www.w3.org/1999/xlink" viewBox="0 0 30 30" shape-rendering="geometricPrecision" text-rendering="geometricPrecision">
<style><![CDATA[
#evgbh9lKoPN3_ts {animation: evgbh9lKoPN3_ts__ts 3000ms linear infinite normal forwards}@keyframes evgbh9lKoPN3_ts__ts { 0% {transform: translate(15px,15px) scale(0.185241,0.185241);animation-timing-function: cubic-bezier(0.42,0,0.58,1)} 66.666667% {transform: translate(15px,15px) scale(0.2,0.2);animation-timing-function: cubic-bezier(0.42,0,0.58,1)} 100% {transform: translate(15px,15px) scale(0.185241,0.185241)}} #evgbh9lKoPN4_ts {animation: evgbh9lKoPN4_ts__ts 3000ms linear infinite normal forwards}@keyframes evgbh9lKoPN4_ts__ts { 0% {transform: translate(15px,15px) scale(0.2995,0.2995);animation-timing-function: cubic-bezier(0.42,0,0.58,1)} 50% {transform: translate(15px,15px) scale(0.31,0.31);animation-timing-function: cubic-bezier(0.42,0,0.58,1)} 100% {transform: translate(15px,15px) scale(0.2995,0.2995)}} #evgbh9lKoPN5_ts {animation: evgbh9lKoPN5_ts__ts 3000ms linear infinite normal forwards}@keyframes evgbh9lKoPN5_ts__ts { 0% {transform: translate(15px,15px) scale(0.398691,0.398691);animation-timing-function: cubic-bezier(0.42,0,0.58,1)} 33.333333% {transform: translate(15px,15px) scale(0.41,0.41);animation-timing-function: cubic-bezier(0.42,0,0.58,1)} 100% {transform: translate(15px,15px) scale(0.398691,0.398691)}} #evgbh9lKoPN11_tr {animation: evgbh9lKoPN11_tr__tr 3000ms linear infinite normal forwards}@keyframes evgbh9lKoPN11_tr__tr { 0% {transform: translate(9.50045px,10.75px) rotate(0deg)} 100% {transform: translate(9.50045px,10.75px) rotate(720deg)}} #evgbh9lKoPN12_tr {animation: evgbh9lKoPN12_tr__tr 3000ms linear infinite normal forwards}@keyframes evgbh9lKoPN12_tr__tr { 0% {transform: translate(15px,13.217727px) rotate(180deg)} 100% {transform: translate(15px,13.217727px) rotate(900deg)}} #evgbh9lKoPN13_ts {animation: evgbh9lKoPN13_ts__ts 3000ms linear infinite normal forwards}@keyframes evgbh9lKoPN13_ts__ts { 0% {transform: translate(16.712627px,25.466426px) scale(0.860107,0.918685);animation-timing-function: cubic-bezier(0.455,0.03,0.515,0.955)} 23.333333% {transform: translate(16.712627px,25.466426px) scale(0.860107,0.2987);animation-timing-function: cubic-bezier(0.455,0.03,0.515,0.955)} 50% {transform: translate(16.712627px,25.466426px) scale(0.860107,0.918685);animation-timing-function: cubic-bezier(0.455,0.03,0.515,0.955)} 73.333333% {transform: translate(16.712627px,25.466426px) scale(0.860107,0.2987);animation-timing-function: cubic-bezier(0.455,0.03,0.515,0.955)} 100% {transform: translate(16.712627px,25.466426px) scale(0.860107,0.918685)}}
]]></style>
<defs><radialGradient id="evgbh9lKoPN2-fill" cx="0" cy="0" r="0.5" spreadMethod="pad" gradientUnits="objectBoundingBox" gradientTransform="translate(0.5 0.5)"><stop id="evgbh9lKoPN2-fill-0" offset="0%" stop-color="rgba(48,110,255,0)"/><stop id="evgbh9lKoPN2-fill-1" offset="55.1673%" stop-color="#306eff"/><stop id="evgbh9lKoPN2-fill-2" offset="100%" stop-color="rgba(48,110,255,0)"/></radialGradient></defs><ellipse rx="13.328797" ry="13.328797" transform="matrix(1.125383 0 0 1.125384 15 15)" opacity="0.4" fill="url(#evgbh9lKoPN2-fill)" stroke-width="0"/><g id="evgbh9lKoPN3_ts" transform="translate(15,15) scale(0.185241,0.185241)"><ellipse rx="32.273162" ry="32.273162" transform="translate(0,0)" fill="none" stroke="#306eff" stroke-opacity="0.4"/></g><g id="evgbh9lKoPN4_ts" transform="translate(15,15) scale(0.2995,0.2995)"><ellipse rx="32.273162" ry="32.273162" transform="translate(0,0)" fill="none" stroke="#306eff" stroke-opacity="0.2"/></g><g id="evgbh9lKoPN5_ts" transform="translate(15,15) scale(0.398691,0.398691)"><ellipse rx="32.273162" ry="32.273162" transform="translate(0,0)" fill="none" stroke="#306eff" stroke-opacity="0.1"/></g><g transform="translate(5.49955 2.467727)" mask="url(#evgbh9lKoPN10)"><g paint-order="stroke fill markers"><path d="M9.00094,14c-1.25932-.9443-2.00053-2.4264-2.00064-4.00038L7,5.5C7,5.5,7.50094,4,9.50094,4s2.49996,1.5,2.49996,1.5v4.49375c0,1.57735-.7441,3.06225-2.00778,4.00625v0l-.49218,6-.5-6v0Zm.5-1.5c1.10456,0,1.99996-.8954,1.99996-2s-.8954-2-1.99996-2-2,.89543-2,2s.89543,2,2,2Z" clip-rule="evenodd" fill="#306eff" fill-rule="evenodd"/><path d="M9.50094,4C11.5009,4,12.0009,5.5,12.0009,5.5M9.50094,4C7.50094,4,7,5.5,7,5.5M9.50094,4c0-.78105,0-3,0-3M12.0009,5.5l-.2791-2.51223C11.5961,1.85613,10.6395,1,9.50094,1v0M12.0009,5.5v4.49375c0,1.57735-.7441,3.06225-2.00778,4.00625v0l-.49218,6M7,5.5l.28098-2.51431C7.40734,1.85505,8.36326,1,9.50094,1v0M7,5.5l.0003,4.49962C7.00041,11.5736,7.74162,13.0557,9.00094,14v0l.5,6m1.99996-.5L9.50094,20m0,0l-2-.5m2,.5v3m0,1.5v-1.5m0,0L11,23m0,0m0,0m.5009-12.5c0,1.1046-.8954,2-1.99996,2s-2-.8954-2-2s.89543-2,2-2s1.99996.89543,1.99996,2Z" fill="none" stroke="#306eff" stroke-linecap="round" stroke-linejoin="round"/></g><mask id="evgbh9lKoPN10" mask-type="luminance" x="-150%" y="-150%" height="400%" width="400%"><g id="evgbh9lKoPN11_tr" transform="translate(9.50045,10.75) rotate(0)"><path d="M20.81293,3.44791l-6.85139,6.73583c-.39872.38924-1.02612.41918-1.46005.08991-.43391.32927-1.06132.29932-1.46005-.08991L4.18702,3.44492c-.43192-.4217-.43192-1.10539,0-1.52709s1.13241-.4217,1.56439,0l6.019097,5.916817c.256-.102966,1.244907-.089874,1.44981.012116L19.24859,1.92083c.43198-.4217,1.13235-.4217,1.56434,0s.43198,1.10539,0,1.52709v-.00001ZM12.5,29.16697c9.20492,0,16.66697-7.46206,16.66697-16.66697s-7.46206-16.66697-16.66697-16.66697-16.66697,7.46206-16.66697,16.66697s7.46206,16.66697,16.66697,16.66697Z" transform="translate(-12.5,-10.085748)" fill="#fff"/></g></mask></g><g id="evgbh9lKoPN12_tr" transform="translate(15,13.217727) rotate(180)"><path d="M17,3L10.4192,9.58076M2,18l6.58076-6.5808M17,18l-6.5808-6.5808M2,3L8.58076,9.58076m1.83844,0c.2353.23525.3808.56024.3808.91924s-.1455.684-.3808.9192m0-1.83844C10.184,9.34551,9.85899,9.2,9.5,9.2s-.68399.14551-.91924.38076M10.4192,11.4192c-.2352.2353-.56021.3808-.9192.3808s-.68399-.1455-.91924-.3808m0-1.83844C8.34551,9.81601,8.2,10.141,8.2,10.5s.14551.684.38076.9192" transform="translate(-9.5,-10.5)" fill="none" stroke="#306eff" stroke-linecap="round" stroke-linejoin="round"/></g><g id="evgbh9lKoPN13_ts" transform="translate(16.712627,25.466426) scale(0.860107,0.918685)"><rect width="1.166263" height="4.356247" rx="0.58" ry="0.58" transform="translate(-0.583126,-2.17813)" fill="#306eff" stroke-width="0"/></g></svg>
