<?xml version="1.0" encoding="utf-8"?>
<!-- Generator: Adobe Illustrator 24.3.0, SVG Export Plug-In . SVG Version: 6.00 Build 0)  -->
<svg version="1.1" id="Layer_1" xmlns="http://www.w3.org/2000/svg" xmlns:xlink="http://www.w3.org/1999/xlink" x="0px" y="0px"
	 viewBox="0 0 800 800" style="enable-background:new 0 0 800 800;" xml:space="preserve">
<path id="path397" d="M311.6,1C141.3,1,2,140.3,2,310.5s139.3,309.5,309.5,309.5s309.5-139.3,309.5-309.5S481.8,1,311.6,1z
	 M311.6,118.9c106.5,0,191.6,85.1,191.6,191.7S418,502.2,311.6,502.2S120,417.1,120,310.5S205.1,118.9,311.6,118.9L311.6,118.9z"/>
<path id="path453" d="M502.1,444.5c-15.6,0-30.6,6.2-41.7,17.3c-23,23-23,60.3,0,83.4L695,779.7c23,23,60.4,23,83.4,0
	c23-23,23.1-60.3,0-83.4L543.8,461.7C532.7,450.7,517.7,444.5,502.1,444.5z"/>
</svg>
